<?xml version="1.0" encoding="utf-8"?>
<!-- Generator: Adobe Illustrator 12.0.0, SVG Export Plug-In . SVG Version: 6.00 Build 51448)  -->
<!DOCTYPE svg PUBLIC "-//W3C//DTD SVG 1.1//EN" "http://www.w3.org/Graphics/SVG/1.1/DTD/svg11.dtd" [
	<!ENTITY ns_svg "http://www.w3.org/2000/svg">
	<!ENTITY ns_xlink "http://www.w3.org/1999/xlink">
]>
<svg  version="1.1" id="Layer_1" xmlns="&ns_svg;" xmlns:xlink="&ns_xlink;" width="521" height="189" viewBox="0 0 521 189"
	 overflow="visible" enable-background="new 0 0 521 189" xml:space="preserve">
<g>
	<linearGradient id="XMLID_2_" gradientUnits="userSpaceOnUse" x1="88.4858" y1="177.5806" x2="88.4858" y2="11.4194">
		<stop  offset="0" style="stop-color:#EE9037"/>
		<stop  offset="0.0996" style="stop-color:#EE8E3E"/>
		<stop  offset="0.259" style="stop-color:#EE884F"/>
		<stop  offset="0.4583" style="stop-color:#EC7D63"/>
		<stop  offset="0.6897" style="stop-color:#EA6C76"/>
		<stop  offset="0.9452" style="stop-color:#E6558A"/>
		<stop  offset="1" style="stop-color:#E64E8D"/>
	</linearGradient>
	<path fill="url(#XMLID_2_)" d="M158.423,60.824c2.102-3.708,4.078-8.157-2.594-11.987c-6.674-3.833-53.26-31.142-59.687-35.094
		l-0.247,0.123c-2.967-1.484-9.022-4.328-14.704-0.62c-5.686,3.709-49.06,29.164-56.845,33.737
		c-7.784,4.574-5.438,10.626-1.484,12.975c3.957,2.347,14.954,9.022,18.414,11.367c3.458,2.35,6.548,5.191,3.583,10.259
		c-2.967,5.068-22.243,38.676-26.197,45.104c-3.956,6.426-1.976,11.615,2.843,14.581c4.817,2.966,51.531,29.904,57.091,33.119
		c5.561,3.213,10.996,4.446,16.311,1.603c5.314-2.842,53.014-31.014,58.945-34.6c5.931-3.583,3.089-9.514,0.493-11.122
		c-2.595-1.605-15.818-10.255-20.884-13.467c-5.065-3.214-4.571-5.316-1.854-10.134C134.222,102.032,156.322,64.531,158.423,60.824z
		 M45.861,66.106c-2.452-1.31-11.489-6.594-13.793-8.028c-4.324-2.688-2.954-6.841,0.023-8.355
		c2.977-1.513,33.459-18.931,37.049-20.59c3.036-1.402,5.966,1.067,3.863,4.923c-1.328,2.438-14.879,25.373-17.353,29.576
		C53.182,67.833,49.881,68.252,45.861,66.106z M33.688,115.346c1.299-2.455,14.563-25.557,16.983-29.79
		c2.418-4.23,5.713-4.691,9.761-2.596c2.467,1.282,11.569,6.455,13.889,7.86c4.357,2.634,3.039,6.801,0.083,8.354
		c-2.957,1.547-33.224,19.342-36.791,21.045C34.593,121.661,31.635,119.225,33.688,115.346z M84.63,161.988
		c-0.263,4.448-3.782,6.505-10.181,2.664c-6.4-3.847-38.498-22.01-42.52-24.237c-4.023-2.228-6.146-5.854-0.643-8.93
		c5.502-3.074,40.188-23.075,45.14-26.113c4.951-3.041,8.5-1.54,8.445,4.65C84.803,118.225,84.891,157.541,84.63,161.988z
		 M84.853,80.729c0.127,3.336-2.834,6.552-7.285,4.086c-2.375-1.316-11.392-6.638-13.725-8.14c-3.835-2.467-5.076-5.556-2.608-9.759
		c2.467-4.205,15.904-27.207,17.387-29.555c2.344-3.71,5.93-2.357,6.182,0.979C85.1,42.283,84.726,77.392,84.853,80.729z
		 M91.818,28.199c-0.124-5.806,2.963-8.114,8.278-4.943c7.044,4.204,41.024,23.974,44.732,26.445
		c3.707,2.473,3.707,6.55-2.842,10.133c-6.55,3.585-38.432,22.12-42.384,24.468c-3.955,2.349-8.157,2.349-8.033-3.955
		S91.941,34.006,91.818,28.199z M91.818,151.278c-0.293-3.944,0.123-39.05,0-42.386c-0.124-3.338,2.842-6.549,7.291-4.079
		c2.369,1.318,11.382,6.651,13.716,8.157c3.829,2.472,5.065,5.562,2.596,9.763c-2.473,4.202-15.938,27.188-17.425,29.533
		C95.648,155.974,92.065,154.614,91.818,151.278z M130.793,123.562c2.449,1.311,11.481,6.608,13.781,8.045
		c4.322,2.694,2.948,6.845-0.031,8.355c-2.981,1.509-33.484,18.887-37.074,20.543c-3.038,1.399-5.966-1.076-3.86-4.928
		c1.331-2.438,14.909-25.354,17.387-29.555C123.473,121.825,126.774,121.41,130.793,123.562z M126.008,104.104
		c-2.425,4.229-5.721,4.686-9.767,2.584c-2.463-1.285-11.56-6.467-13.881-7.875c-4.351-2.638-3.03-6.806-0.071-8.352
		c2.961-1.546,33.249-19.304,36.817-21.005c3.02-1.436,5.979,1.002,3.922,4.879C141.724,76.789,128.433,99.875,126.008,104.104z"/>
	<g>
		<g>
			<path fill="#A1A0A1" d="M182.373,65.406h51.511c0,0-49.747,56.166-51.352,57.772c-1.604,1.604-1.604,4.011-1.604,4.011
				s0,3.37,0,4.333c0,0.964,0,2.406,3.369,2.406c3.37,0,59.857,0,62.424,0c2.567,0,3.532-1.124,3.532-2.246c0-1.123,0-4.493,0-5.776
				s-0.643-2.166-2.166-2.166c-1.525,0-45.016,0-46.941,0s-3.85,0-3.85,0s49.266-55.927,50.71-57.851
				c1.444-1.926,2.24-2.761,2.24-4.688c0-1.925-0.03-2.697-0.03-3.981c0-1.284-0.5-2.726-2.691-2.726c-2.407,0-59.216,0-59.216,0
				L182.373,65.406z"/>
			<path fill="#A1A0A1" d="M265.642,54.478c1.928,0,5.313,0.017,6.436,0.017c1.865,0,2.488,0.803,2.488,2.487
				c0,1.686,0,52.234,0,55.604s2.316,12.959,12.959,12.959c9.105,0,20.178,0,23.227,0c6.496,0,12.98-4.331,12.98-12.979
				c0-8.646,0-54.06,0-55.664s0.69-2.087,1.985-2.087c1.293,0,4.934-0.01,7.02-0.01c0.742,0,2.087,0.171,2.087,2.098
				c0,1.925,0,48.302,0,52.636c0,10.59-5.854,25.613-24.468,25.613c-18.615,0-11.8-0.099-22.392-0.099
				c-14.212,0-24.873-10.109-24.873-26.639c0-16.529,0.016-49.556,0.016-51.322C263.106,55.327,264.36,54.478,265.642,54.478z"/>
			<path fill="#A1A0A1" d="M415.778,135.151c-1.926,0-5.313-0.019-6.438-0.019c-1.867,0-2.486-0.802-2.486-2.486
				c0-1.686,0-52.235,0-55.605c0-3.37-2.319-12.959-12.959-12.959c-9.106,0-20.179,0-23.229,0c-6.495,0-12.979,4.335-12.979,12.98
				s0,54.059,0,55.664c0,1.604-0.692,2.085-1.986,2.085c-1.295,0-4.935,0.011-7.021,0.011c-0.741,0-2.084-0.17-2.084-2.096
				s0-48.304,0-52.636c0-10.59,5.852-25.612,24.468-25.612c18.614,0,11.797,0.096,22.389,0.096c14.215,0,24.874,10.11,24.874,26.641
				c0,16.528-0.014,49.556-0.014,51.32C418.313,134.3,417.06,135.151,415.778,135.151z"/>
			<path fill="#A1A0A1" d="M497.535,61.52c-5.639-5.924-13.966-8.321-21.723-8.321c-7.762,0-14.25,0-17.776,0
				s-16.791,0.844-23.703,11.851c-6.909,11.002-5.499,24.404-5.499,28.636c0,4.233-1.383,22.95,10.015,33.434
				c7.054,6.489,16.081,6.914,21.161,6.914c5.077,0,34.142,0,34.142,0l6.205-9.734c0,0-32.166,0-40.628,0
				c-8.464,0-19.466-5.925-19.466-17.917c0-5.925,0-8.322,0-8.322s54.031,0,58.119,0c4.091,0,6.066-1.412,6.066-4.515
				c0-3.102,0-7.759,0-11.849C504.448,77.603,503.18,67.446,497.535,61.52z M493.866,86.632h-53.198c0,0,0.063-1.708,0.063-5.8
				c0-9.654,7.143-16.771,18.263-16.771c8.89,0,1.455,0.105,17.819,0.105c13.246,0,17.054,11.111,17.054,15.386
				C493.866,81.525,493.866,86.632,493.866,86.632z"/>
		</g>
	</g>
</g>
</svg>
